<?xml version="1.0" encoding="UTF-8"?>
<!DOCTYPE score-partwise PUBLIC "-//Recordare//DTD MusicXML 3.1 Partwise//EN" "http://www.musicxml.org/dtds/partwise.dtd">
<score-partwise version="3.1">
  <work>
    <work-title>欢乐颂 (Ode to Joy)</work-title>
  </work>
  <identification>
    <creator type="composer">贝多芬</creator>
    <encoding>
      <software>DeepMusic</software>
      <encoding-date>2026-03-22</encoding-date>
    </encoding>
  </identification>
  <part-list>
    <score-part id="P1">
      <part-name>Piano</part-name>
      <score-instrument id="P1-I1"><instrument-name>Piano</instrument-name></score-instrument>
      <midi-instrument id="P1-I1"><midi-channel>1</midi-channel><midi-program>1</midi-program><volume>80</volume><pan>0</pan></midi-instrument>
    </score-part>
  </part-list>
  <part id="P1">
    <measure number="1">
    <attributes>
      <divisions>4</divisions>
      <key><fifths>2</fifths></key>
      <time><beats>4</beats><beat-type>4</beat-type></time>
      <clef><sign>G</sign><line>2</line></clef>
    </attributes>
    <direction placement="above">
      <direction-type><metronome><beat-unit>quarter</beat-unit><per-minute>100</per-minute></metronome></direction-type>
    </direction>
      <note><pitch><step>E</step><octave>4</octave></pitch><duration>4</duration><voice>1</voice><type>quarter</type></note>
      <note><pitch><step>E</step><octave>4</octave></pitch><duration>4</duration><voice>1</voice><type>quarter</type></note>
      <note><pitch><step>F</step><octave>4</octave></pitch><duration>4</duration><voice>1</voice><type>quarter</type></note>
      <note><pitch><step>G</step><octave>4</octave></pitch><duration>4</duration><voice>1</voice><type>quarter</type></note>
    </measure>
    <measure number="2">
      <note><pitch><step>G</step><octave>4</octave></pitch><duration>4</duration><voice>1</voice><type>quarter</type></note>
      <note><pitch><step>F</step><octave>4</octave></pitch><duration>4</duration><voice>1</voice><type>quarter</type></note>
      <note><pitch><step>E</step><octave>4</octave></pitch><duration>4</duration><voice>1</voice><type>quarter</type></note>
      <note><pitch><step>D</step><octave>4</octave></pitch><duration>4</duration><voice>1</voice><type>quarter</type></note>
    </measure>
    <measure number="3">
      <note><pitch><step>C</step><octave>4</octave></pitch><duration>4</duration><voice>1</voice><type>quarter</type></note>
      <note><pitch><step>C</step><octave>4</octave></pitch><duration>4</duration><voice>1</voice><type>quarter</type></note>
      <note><pitch><step>D</step><octave>4</octave></pitch><duration>4</duration><voice>1</voice><type>quarter</type></note>
      <note><pitch><step>E</step><octave>4</octave></pitch><duration>4</duration><voice>1</voice><type>quarter</type></note>
    </measure>
    <measure number="4">
      <note><pitch><step>E</step><octave>4</octave></pitch><duration>8</duration><voice>1</voice><type>half</type></note>
      <note><pitch><step>D</step><octave>4</octave></pitch><duration>4</duration><voice>1</voice><type>quarter</type></note>
      <note><rest/><duration>4</duration><voice>1</voice><type>quarter</type></note>
    </measure>
    <measure number="5">
      <note><pitch><step>D</step><octave>4</octave></pitch><duration>4</duration><voice>1</voice><type>quarter</type></note>
      <note><pitch><step>D</step><octave>4</octave></pitch><duration>4</duration><voice>1</voice><type>quarter</type></note>
      <note><pitch><step>E</step><octave>4</octave></pitch><duration>4</duration><voice>1</voice><type>quarter</type></note>
      <note><pitch><step>C</step><octave>4</octave></pitch><duration>4</duration><voice>1</voice><type>quarter</type></note>
    </measure>
    <measure number="6">
      <note><pitch><step>D</step><octave>4</octave></pitch><duration>4</duration><voice>1</voice><type>quarter</type></note>
      <note><pitch><step>E</step><octave>4</octave></pitch><duration>4</duration><voice>1</voice><type>quarter</type></note>
      <note><pitch><step>F</step><octave>4</octave></pitch><duration>4</duration><voice>1</voice><type>quarter</type></note>
      <note><pitch><step>E</step><octave>4</octave></pitch><duration>4</duration><voice>1</voice><type>quarter</type></note>
    </measure>
    <measure number="7">
      <note><pitch><step>C</step><octave>4</octave></pitch><duration>4</duration><voice>1</voice><type>quarter</type></note>
      <note><pitch><step>D</step><octave>4</octave></pitch><duration>4</duration><voice>1</voice><type>quarter</type></note>
      <note><pitch><step>E</step><octave>4</octave></pitch><duration>4</duration><voice>1</voice><type>quarter</type></note>
      <note><pitch><step>F</step><octave>4</octave></pitch><duration>4</duration><voice>1</voice><type>quarter</type></note>
    </measure>
    <measure number="8">
      <note><pitch><step>E</step><octave>4</octave></pitch><duration>8</duration><voice>1</voice><type>half</type></note>
      <note><pitch><step>C</step><octave>4</octave></pitch><duration>8</duration><voice>1</voice><type>half</type></note>
    </measure>
    <measure number="9">
      <note><pitch><step>E</step><octave>4</octave></pitch><duration>4</duration><voice>1</voice><type>quarter</type></note>
      <note><pitch><step>E</step><octave>4</octave></pitch><duration>4</duration><voice>1</voice><type>quarter</type></note>
      <note><pitch><step>F</step><octave>4</octave></pitch><duration>4</duration><voice>1</voice><type>quarter</type></note>
      <note><pitch><step>G</step><octave>4</octave></pitch><duration>4</duration><voice>1</voice><type>quarter</type></note>
    </measure>
    <measure number="10">
      <note><pitch><step>G</step><octave>4</octave></pitch><duration>4</duration><voice>1</voice><type>quarter</type></note>
      <note><pitch><step>F</step><octave>4</octave></pitch><duration>4</duration><voice>1</voice><type>quarter</type></note>
      <note><pitch><step>E</step><octave>4</octave></pitch><duration>4</duration><voice>1</voice><type>quarter</type></note>
      <note><pitch><step>D</step><octave>4</octave></pitch><duration>4</duration><voice>1</voice><type>quarter</type></note>
    </measure>
    <measure number="11">
      <note><pitch><step>C</step><octave>4</octave></pitch><duration>4</duration><voice>1</voice><type>quarter</type></note>
      <note><pitch><step>C</step><octave>4</octave></pitch><duration>4</duration><voice>1</voice><type>quarter</type></note>
      <note><pitch><step>D</step><octave>4</octave></pitch><duration>4</duration><voice>1</voice><type>quarter</type></note>
      <note><pitch><step>E</step><octave>4</octave></pitch><duration>4</duration><voice>1</voice><type>quarter</type></note>
    </measure>
    <measure number="12">
      <note><pitch><step>E</step><octave>4</octave></pitch><duration>8</duration><voice>1</voice><type>half</type></note>
      <note><pitch><step>D</step><octave>4</octave></pitch><duration>4</duration><voice>1</voice><type>quarter</type></note>
      <note><rest/><duration>4</duration><voice>1</voice><type>quarter</type></note>
    </measure>
    <measure number="13">
      <note><pitch><step>D</step><octave>4</octave></pitch><duration>4</duration><voice>1</voice><type>quarter</type></note>
      <note><pitch><step>D</step><octave>4</octave></pitch><duration>4</duration><voice>1</voice><type>quarter</type></note>
      <note><pitch><step>E</step><octave>4</octave></pitch><duration>4</duration><voice>1</voice><type>quarter</type></note>
      <note><pitch><step>C</step><octave>4</octave></pitch><duration>4</duration><voice>1</voice><type>quarter</type></note>
    </measure>
    <measure number="14">
      <note><pitch><step>D</step><octave>4</octave></pitch><duration>4</duration><voice>1</voice><type>quarter</type></note>
      <note><pitch><step>E</step><octave>4</octave></pitch><duration>4</duration><voice>1</voice><type>quarter</type></note>
      <note><pitch><step>F</step><octave>4</octave></pitch><duration>4</duration><voice>1</voice><type>quarter</type></note>
      <note><pitch><step>E</step><octave>4</octave></pitch><duration>4</duration><voice>1</voice><type>quarter</type></note>
    </measure>
    <measure number="15">
      <note><pitch><step>C</step><octave>4</octave></pitch><duration>4</duration><voice>1</voice><type>quarter</type></note>
      <note><pitch><step>D</step><octave>4</octave></pitch><duration>4</duration><voice>1</voice><type>quarter</type></note>
      <note><pitch><step>E</step><octave>4</octave></pitch><duration>4</duration><voice>1</voice><type>quarter</type></note>
      <note><pitch><step>F</step><octave>4</octave></pitch><duration>4</duration><voice>1</voice><type>quarter</type></note>
    </measure>
    <measure number="16">
      <note><pitch><step>E</step><octave>4</octave></pitch><duration>8</duration><voice>1</voice><type>half</type></note>
      <note><pitch><step>C</step><octave>4</octave></pitch><duration>8</duration><voice>1</voice><type>half</type></note>
    </measure>
    <measure number="17">
      <note><pitch><step>E</step><octave>4</octave></pitch><duration>4</duration><voice>1</voice><type>quarter</type></note>
      <note><pitch><step>E</step><octave>4</octave></pitch><duration>4</duration><voice>1</voice><type>quarter</type></note>
      <note><pitch><step>F</step><octave>4</octave></pitch><duration>4</duration><voice>1</voice><type>quarter</type></note>
      <note><pitch><step>G</step><octave>4</octave></pitch><duration>4</duration><voice>1</voice><type>quarter</type></note>
    </measure>
    <measure number="18">
      <note><pitch><step>G</step><octave>4</octave></pitch><duration>4</duration><voice>1</voice><type>quarter</type></note>
      <note><pitch><step>F</step><octave>4</octave></pitch><duration>4</duration><voice>1</voice><type>quarter</type></note>
      <note><pitch><step>E</step><octave>4</octave></pitch><duration>4</duration><voice>1</voice><type>quarter</type></note>
      <note><pitch><step>D</step><octave>4</octave></pitch><duration>4</duration><voice>1</voice><type>quarter</type></note>
    </measure>
    <measure number="19">
      <note><pitch><step>C</step><octave>4</octave></pitch><duration>4</duration><voice>1</voice><type>quarter</type></note>
      <note><pitch><step>C</step><octave>4</octave></pitch><duration>4</duration><voice>1</voice><type>quarter</type></note>
      <note><pitch><step>D</step><octave>4</octave></pitch><duration>4</duration><voice>1</voice><type>quarter</type></note>
      <note><pitch><step>E</step><octave>4</octave></pitch><duration>4</duration><voice>1</voice><type>quarter</type></note>
    </measure>
    <measure number="20">
      <note><pitch><step>E</step><octave>4</octave></pitch><duration>8</duration><voice>1</voice><type>half</type></note>
      <note><pitch><step>D</step><octave>4</octave></pitch><duration>4</duration><voice>1</voice><type>quarter</type></note>
      <note><rest/><duration>4</duration><voice>1</voice><type>quarter</type></note>
    </measure>
    <measure number="21">
      <note><pitch><step>D</step><octave>4</octave></pitch><duration>4</duration><voice>1</voice><type>quarter</type></note>
      <note><pitch><step>D</step><octave>4</octave></pitch><duration>4</duration><voice>1</voice><type>quarter</type></note>
      <note><pitch><step>E</step><octave>4</octave></pitch><duration>4</duration><voice>1</voice><type>quarter</type></note>
      <note><pitch><step>C</step><octave>4</octave></pitch><duration>4</duration><voice>1</voice><type>quarter</type></note>
    </measure>
    <measure number="22">
      <note><pitch><step>D</step><octave>4</octave></pitch><duration>4</duration><voice>1</voice><type>quarter</type></note>
      <note><pitch><step>E</step><octave>4</octave></pitch><duration>4</duration><voice>1</voice><type>quarter</type></note>
      <note><pitch><step>F</step><octave>4</octave></pitch><duration>4</duration><voice>1</voice><type>quarter</type></note>
      <note><pitch><step>E</step><octave>4</octave></pitch><duration>4</duration><voice>1</voice><type>quarter</type></note>
    </measure>
    <measure number="23">
      <note><pitch><step>C</step><octave>4</octave></pitch><duration>4</duration><voice>1</voice><type>quarter</type></note>
      <note><pitch><step>D</step><octave>4</octave></pitch><duration>4</duration><voice>1</voice><type>quarter</type></note>
      <note><pitch><step>E</step><octave>4</octave></pitch><duration>4</duration><voice>1</voice><type>quarter</type></note>
      <note><pitch><step>F</step><octave>4</octave></pitch><duration>4</duration><voice>1</voice><type>quarter</type></note>
    </measure>
    <measure number="24">
      <note><pitch><step>E</step><octave>4</octave></pitch><duration>8</duration><voice>1</voice><type>half</type></note>
      <note><pitch><step>C</step><octave>4</octave></pitch><duration>8</duration><voice>1</voice><type>half</type></note>
    </measure>
    <measure number="25">
      <note><pitch><step>E</step><octave>4</octave></pitch><duration>4</duration><voice>1</voice><type>quarter</type></note>
      <note><pitch><step>E</step><octave>4</octave></pitch><duration>4</duration><voice>1</voice><type>quarter</type></note>
      <note><pitch><step>F</step><octave>4</octave></pitch><duration>4</duration><voice>1</voice><type>quarter</type></note>
      <note><pitch><step>G</step><octave>4</octave></pitch><duration>4</duration><voice>1</voice><type>quarter</type></note>
    </measure>
    <measure number="26">
      <note><pitch><step>G</step><octave>4</octave></pitch><duration>4</duration><voice>1</voice><type>quarter</type></note>
      <note><pitch><step>F</step><octave>4</octave></pitch><duration>4</duration><voice>1</voice><type>quarter</type></note>
      <note><pitch><step>E</step><octave>4</octave></pitch><duration>4</duration><voice>1</voice><type>quarter</type></note>
      <note><pitch><step>D</step><octave>4</octave></pitch><duration>4</duration><voice>1</voice><type>quarter</type></note>
    </measure>
    <measure number="27">
      <note><pitch><step>C</step><octave>4</octave></pitch><duration>4</duration><voice>1</voice><type>quarter</type></note>
      <note><pitch><step>C</step><octave>4</octave></pitch><duration>4</duration><voice>1</voice><type>quarter</type></note>
      <note><pitch><step>D</step><octave>4</octave></pitch><duration>4</duration><voice>1</voice><type>quarter</type></note>
      <note><pitch><step>E</step><octave>4</octave></pitch><duration>4</duration><voice>1</voice><type>quarter</type></note>
    </measure>
    <measure number="28">
      <note><pitch><step>E</step><octave>4</octave></pitch><duration>8</duration><voice>1</voice><type>half</type></note>
      <note><pitch><step>D</step><octave>4</octave></pitch><duration>4</duration><voice>1</voice><type>quarter</type></note>
      <note><rest/><duration>4</duration><voice>1</voice><type>quarter</type></note>
    </measure>
    <measure number="29">
      <note><pitch><step>D</step><octave>4</octave></pitch><duration>4</duration><voice>1</voice><type>quarter</type></note>
      <note><pitch><step>D</step><octave>4</octave></pitch><duration>4</duration><voice>1</voice><type>quarter</type></note>
      <note><pitch><step>E</step><octave>4</octave></pitch><duration>4</duration><voice>1</voice><type>quarter</type></note>
      <note><pitch><step>C</step><octave>4</octave></pitch><duration>4</duration><voice>1</voice><type>quarter</type></note>
    </measure>
    <measure number="30">
      <note><pitch><step>D</step><octave>4</octave></pitch><duration>4</duration><voice>1</voice><type>quarter</type></note>
      <note><pitch><step>E</step><octave>4</octave></pitch><duration>4</duration><voice>1</voice><type>quarter</type></note>
      <note><pitch><step>F</step><octave>4</octave></pitch><duration>4</duration><voice>1</voice><type>quarter</type></note>
      <note><pitch><step>E</step><octave>4</octave></pitch><duration>4</duration><voice>1</voice><type>quarter</type></note>
    </measure>
    <measure number="31">
      <note><pitch><step>C</step><octave>4</octave></pitch><duration>4</duration><voice>1</voice><type>quarter</type></note>
      <note><pitch><step>D</step><octave>4</octave></pitch><duration>4</duration><voice>1</voice><type>quarter</type></note>
      <note><pitch><step>E</step><octave>4</octave></pitch><duration>4</duration><voice>1</voice><type>quarter</type></note>
      <note><pitch><step>F</step><octave>4</octave></pitch><duration>4</duration><voice>1</voice><type>quarter</type></note>
    </measure>
    <measure number="32">
      <note><pitch><step>E</step><octave>4</octave></pitch><duration>8</duration><voice>1</voice><type>half</type></note>
      <note><pitch><step>C</step><octave>4</octave></pitch><duration>8</duration><voice>1</voice><type>half</type></note>
    </measure>
  </part>
</score-partwise>