<?xml version="1.0" encoding="UTF-8"?>
<!DOCTYPE score-partwise PUBLIC "-//Recordare//DTD MusicXML 3.1 Partwise//EN" "http://www.musicxml.org/dtds/partwise.dtd">
<score-partwise version="3.1">
  <work>
    <work-title>生日快乐 (Happy Birthday)</work-title>
  </work>
  <identification>
    <creator type="composer">传统</creator>
    <encoding>
      <software>DeepMusic</software>
      <encoding-date>2026-03-22</encoding-date>
    </encoding>
  </identification>
  <part-list>
    <score-part id="P1">
      <part-name>Piano</part-name>
      <score-instrument id="P1-I1"><instrument-name>Piano</instrument-name></score-instrument>
      <midi-instrument id="P1-I1"><midi-channel>1</midi-channel><midi-program>1</midi-program><volume>80</volume><pan>0</pan></midi-instrument>
    </score-part>
  </part-list>
  <part id="P1">
    <measure number="1">
    <attributes>
      <divisions>4</divisions>
      <key><fifths>0</fifths></key>
      <time><beats>3</beats><beat-type>4</beat-type></time>
      <clef><sign>G</sign><line>2</line></clef>
    </attributes>
    <direction placement="above">
      <direction-type><metronome><beat-unit>quarter</beat-unit><per-minute>100</per-minute></metronome></direction-type>
    </direction>
      <note><pitch><step>G</step><octave>4</octave></pitch><duration>2</duration><voice>1</voice><type>eighth</type></note>
      <note><pitch><step>G</step><octave>4</octave></pitch><duration>2</duration><voice>1</voice><type>eighth</type></note>
      <note><pitch><step>A</step><octave>4</octave></pitch><duration>4</duration><voice>1</voice><type>quarter</type></note>
    </measure>
    <measure number="2">
      <note><pitch><step>G</step><octave>4</octave></pitch><duration>4</duration><voice>1</voice><type>quarter</type></note>
      <note><pitch><step>C</step><octave>5</octave></pitch><duration>4</duration><voice>1</voice><type>quarter</type></note>
    </measure>
    <measure number="3">
      <note><pitch><step>B</step><octave>4</octave></pitch><duration>8</duration><voice>1</voice><type>half</type></note>
    </measure>
    <measure number="4">
      <note><pitch><step>G</step><octave>4</octave></pitch><duration>2</duration><voice>1</voice><type>eighth</type></note>
      <note><pitch><step>G</step><octave>4</octave></pitch><duration>2</duration><voice>1</voice><type>eighth</type></note>
      <note><pitch><step>A</step><octave>4</octave></pitch><duration>4</duration><voice>1</voice><type>quarter</type></note>
    </measure>
    <measure number="5">
      <note><pitch><step>G</step><octave>4</octave></pitch><duration>4</duration><voice>1</voice><type>quarter</type></note>
      <note><pitch><step>D</step><octave>5</octave></pitch><duration>4</duration><voice>1</voice><type>quarter</type></note>
    </measure>
    <measure number="6">
      <note><pitch><step>C</step><octave>5</octave></pitch><duration>8</duration><voice>1</voice><type>half</type></note>
    </measure>
    <measure number="7">
      <note><pitch><step>G</step><octave>4</octave></pitch><duration>2</duration><voice>1</voice><type>eighth</type></note>
      <note><pitch><step>G</step><octave>4</octave></pitch><duration>2</duration><voice>1</voice><type>eighth</type></note>
      <note><pitch><step>G</step><octave>5</octave></pitch><duration>4</duration><voice>1</voice><type>quarter</type></note>
    </measure>
    <measure number="8">
      <note><pitch><step>E</step><octave>5</octave></pitch><duration>4</duration><voice>1</voice><type>quarter</type></note>
      <note><pitch><step>C</step><octave>5</octave></pitch><duration>4</duration><voice>1</voice><type>quarter</type></note>
    </measure>
    <measure number="9">
      <note><pitch><step>B</step><octave>4</octave></pitch><duration>4</duration><voice>1</voice><type>quarter</type></note>
      <note><pitch><step>A</step><octave>4</octave></pitch><duration>4</duration><voice>1</voice><type>quarter</type></note>
    </measure>
    <measure number="10">
      <note><pitch><step>F</step><octave>5</octave></pitch><duration>2</duration><voice>1</voice><type>eighth</type></note>
      <note><pitch><step>F</step><octave>5</octave></pitch><duration>2</duration><voice>1</voice><type>eighth</type></note>
      <note><pitch><step>E</step><octave>5</octave></pitch><duration>4</duration><voice>1</voice><type>quarter</type></note>
    </measure>
    <measure number="11">
      <note><pitch><step>C</step><octave>5</octave></pitch><duration>4</duration><voice>1</voice><type>quarter</type></note>
      <note><pitch><step>D</step><octave>5</octave></pitch><duration>4</duration><voice>1</voice><type>quarter</type></note>
    </measure>
    <measure number="12">
      <note><pitch><step>C</step><octave>5</octave></pitch><duration>8</duration><voice>1</voice><type>half</type></note>
    </measure>
    <measure number="13">
      <note><pitch><step>G</step><octave>4</octave></pitch><duration>2</duration><voice>1</voice><type>eighth</type></note>
      <note><pitch><step>G</step><octave>4</octave></pitch><duration>2</duration><voice>1</voice><type>eighth</type></note>
      <note><pitch><step>A</step><octave>4</octave></pitch><duration>4</duration><voice>1</voice><type>quarter</type></note>
    </measure>
    <measure number="14">
      <note><pitch><step>G</step><octave>4</octave></pitch><duration>4</duration><voice>1</voice><type>quarter</type></note>
      <note><pitch><step>C</step><octave>5</octave></pitch><duration>4</duration><voice>1</voice><type>quarter</type></note>
    </measure>
    <measure number="15">
      <note><pitch><step>B</step><octave>4</octave></pitch><duration>8</duration><voice>1</voice><type>half</type></note>
    </measure>
    <measure number="16">
      <note><pitch><step>G</step><octave>4</octave></pitch><duration>2</duration><voice>1</voice><type>eighth</type></note>
      <note><pitch><step>G</step><octave>4</octave></pitch><duration>2</duration><voice>1</voice><type>eighth</type></note>
      <note><pitch><step>G</step><octave>5</octave></pitch><duration>4</duration><voice>1</voice><type>quarter</type></note>
    </measure>
    <measure number="17">
      <note><pitch><step>E</step><octave>5</octave></pitch><duration>4</duration><voice>1</voice><type>quarter</type></note>
      <note><pitch><step>C</step><octave>5</octave></pitch><duration>4</duration><voice>1</voice><type>quarter</type></note>
    </measure>
    <measure number="18">
      <note><pitch><step>D</step><octave>5</octave></pitch><duration>4</duration><voice>1</voice><type>quarter</type></note>
      <note><pitch><step>C</step><octave>5</octave></pitch><duration>4</duration><voice>1</voice><type>quarter</type></note>
    </measure>
    <measure number="19">
      <note><pitch><step>r</step><octave>e</octave></pitch><duration>s</duration><voice>1</voice><type>t</type></note>
      <note><pitch><step>undefined</step><octave>undefined</octave></pitch><duration>undefined</duration><voice>1</voice><type>undefined</type></note>
      <note><pitch><step>h</step><octave>a</octave></pitch><duration>l</duration><voice>1</voice><type>f</type></note>
    </measure>
    <measure number="20">
      <note><pitch><step>r</step><octave>e</octave></pitch><duration>s</duration><voice>1</voice><type>t</type></note>
      <note><pitch><step>undefined</step><octave>undefined</octave></pitch><duration>undefined</duration><voice>1</voice><type>undefined</type></note>
      <note><pitch><step>h</step><octave>a</octave></pitch><duration>l</duration><voice>1</voice><type>f</type></note>
    </measure>
  </part>
</score-partwise>